<svg width="23" height="23" viewBox="0 0 23 23" fill="none" xmlns="http://www.w3.org/2000/svg">
<path d="M11.5197 22.075C8.06973 22.075 5.26973 20.675 5.26973 18.425C5.26973 17.75 5.56973 17.1 6.14473 16.425C5.79473 15.825 5.59473 15.5 5.59473 14.95C5.59473 13.375 7.44473 8.425 9.16973 5.9C10.9197 3.35 11.4447 2.925 13.0447 2.925C13.6697 2.925 14.0947 2.95 14.3947 3.025V3.5C14.3947 5.025 13.9947 6.225 13.2197 7.125H13.0447C12.3697 7.125 11.8447 7.3 11.4947 7.7C10.7947 8.525 9.11973 12.275 9.11973 12.95C9.11973 13.4 9.31973 13.85 9.74473 14.225C9.51973 15.55 8.69473 16.7 7.26973 17.65L6.66973 17.15C6.34473 17.5 6.21973 17.875 6.21973 18.275C6.21973 19.95 8.24473 21.075 11.5197 21.075C15.0197 21.075 18.2447 19.175 20.1447 16.075C21.0947 14.525 21.5447 12.825 21.5447 11.05C21.5447 7.475 19.6447 4.1 16.5197 2.35C14.9697 1.475 13.3197 1.025 11.5197 1.025C7.89473 1.025 4.54473 3.05 2.76973 6.15C1.89473 7.675 1.44473 9.3 1.44473 11.05C1.44473 13.625 2.29473 15.625 4.19473 17.925C4.06973 17.975 3.89473 18.05 3.66973 18.05C2.34473 18.05 0.494727 14.175 0.494727 11.05C0.494727 7.15 2.61973 3.575 6.04473 1.575C7.74473 0.575 9.56973 0.0749987 11.5197 0.0749987C15.3947 0.0749987 19.0947 2.175 21.0197 5.575C21.9947 7.3 22.4947 9.1 22.4947 11.05C22.4947 14.925 20.3447 18.65 16.9447 20.6C15.2447 21.575 13.4447 22.075 11.5197 22.075ZM14.9697 7.725C14.8697 7.725 14.4197 7.6 13.5947 7.35C14.5697 6.15 14.8447 5.15 14.8447 3.65V3.2L15.8447 3.7C16.2447 3.9 16.3947 3.975 16.3947 4.5C16.3947 5.45 16.2697 6.225 15.9447 6.85C15.6447 7.425 15.3197 7.725 14.9697 7.725ZM9.19473 18.6C9.14473 18.6 9.11973 18.575 9.09473 18.575C9.04473 18.575 8.59473 18.35 7.66973 17.925C9.11973 16.975 10.0197 15.7 10.1947 14.4L11.0197 15.025C11.2947 15.225 11.4447 15.475 11.4447 15.7C11.4447 16.4 9.84473 18.6 9.19473 18.6Z" fill="white"/>
</svg>
