<svg width="23" height="23" viewBox="0 0 23 23" fill="none" xmlns="http://www.w3.org/2000/svg">
<path d="M11.5 0C5.175 0 0 5.175 0 11.5C0 17.825 5.175 23 11.5 23C17.825 23 23 17.825 23 11.5C23 5.175 17.825 0 11.5 0ZM11.5 2.875C16.2725 2.875 20.125 6.7275 20.125 11.5C20.125 16.2725 16.2725 20.125 11.5 20.125C6.7275 20.125 2.875 16.2725 2.875 11.5C2.875 6.7275 6.7275 2.875 11.5 2.875ZM10.0625 5.75V12.1325L10.5225 12.5062L11.96 13.9437L12.9375 15.0363L15.0075 12.9663L13.915 11.9888L12.9375 11.0112V5.8075H10.0625V5.75Z" fill="white"/>
</svg>
